<svg xmlns="http://www.w3.org/2000/svg" viewBox="0 0 24 24">
	<path d="M3.4 9.2C3.9 7.5 5.3 6.3 7.2 6.3H16.8C18.7 6.3 20.1 7.5 20.6 9.2L21.4 12.2C21.9 14.2 20.4 16.2 18.3 16.2H5.7C3.6 16.2 2.1 14.2 2.6 12.2L3.4 9.2Z" fill="#7e57c2"/>
	<rect x="6.95" y="8.45" width="10.1" height="5.55" rx="0.9" fill="#4527a0"/>
	<rect x="4.55" y="11.02" width="2.35" height="0.9" rx="0.3" fill="#ede7f6"/>
	<rect x="5.27" y="10.3" width="0.9" height="2.35" rx="0.3" fill="#ede7f6"/>
	<circle cx="17.55" cy="10.95" r="0.78" fill="#d1c4e9"/>
	<circle cx="19.05" cy="12.45" r="0.78" fill="#d1c4e9"/>
	<rect x="8.15" y="15.05" width="7.7" height="0.62" rx="0.3" fill="#5e35b1"/>
	<rect x="4.35" y="7.12" width="2.7" height="0.6" rx="0.3" fill="#5e35b1"/>
	<rect x="16.95" y="7.12" width="2.7" height="0.6" rx="0.3" fill="#5e35b1"/>
</svg>